<svg viewBox="0 0 600 630" xmlns="http://www.w3.org/2000/svg" fill="none"><g fill="rgba(214,227,233,0.22)"><circle cx="124" cy="7" r="1.7"></circle><circle cx="137" cy="7" r="1.7"></circle><circle cx="150" cy="7" r="1.7"></circle><circle cx="163" cy="7" r="1.7"></circle><circle cx="176" cy="7" r="1.7"></circle><circle cx="189" cy="7" r="1.7"></circle><circle cx="202" cy="7" r="1.7"></circle><circle cx="215" cy="7" r="1.7"></circle><circle cx="228" cy="7" r="1.7"></circle><circle cx="241" cy="7" r="1.7"></circle><circle cx="98" cy="20" r="1.7"></circle><circle cx="111" cy="20" r="1.7"></circle><circle cx="124" cy="20" r="1.7"></circle><circle cx="137" cy="20" r="1.7"></circle><circle cx="150" cy="20" r="1.7"></circle><circle cx="163" cy="20" r="1.7"></circle><circle cx="176" cy="20" r="1.7"></circle><circle cx="189" cy="20" r="1.7"></circle><circle cx="202" cy="20" r="1.7"></circle><circle cx="215" cy="20" r="1.7"></circle><circle cx="228" cy="20" r="1.7"></circle><circle cx="241" cy="20" r="1.7"></circle><circle cx="254" cy="20" r="1.7"></circle><circle cx="98" cy="33" r="1.7"></circle><circle cx="111" cy="33" r="1.7"></circle><circle cx="124" cy="33" r="1.7"></circle><circle cx="137" cy="33" r="1.7"></circle><circle cx="150" cy="33" r="1.7"></circle><circle cx="163" cy="33" r="1.7"></circle><circle cx="176" cy="33" r="1.7"></circle><circle cx="189" cy="33" r="1.7"></circle><circle cx="202" cy="33" r="1.7"></circle><circle cx="215" cy="33" r="1.7"></circle><circle cx="228" cy="33" r="1.7"></circle><circle cx="241" cy="33" r="1.7"></circle><circle cx="254" cy="33" r="1.7"></circle><circle cx="85" cy="46" r="1.7"></circle><circle cx="98" cy="46" r="1.7"></circle><circle cx="111" cy="46" r="1.7"></circle><circle cx="124" cy="46" r="1.7"></circle><circle cx="137" cy="46" r="1.7"></circle><circle cx="150" cy="46" r="1.7"></circle><circle cx="163" cy="46" r="1.7"></circle><circle cx="176" cy="46" r="1.7"></circle><circle cx="189" cy="46" r="1.7"></circle><circle cx="202" cy="46" r="1.7"></circle><circle cx="215" cy="46" r="1.7"></circle><circle cx="228" cy="46" r="1.7"></circle><circle cx="241" cy="46" r="1.7"></circle><circle cx="254" cy="46" r="1.7"></circle><circle cx="267" cy="46" r="1.7"></circle><circle cx="280" cy="46" r="1.7"></circle><circle cx="293" cy="46" r="1.7"></circle><circle cx="306" cy="46" r="1.7"></circle><circle cx="319" cy="46" r="1.7"></circle><circle cx="332" cy="46" r="1.7"></circle><circle cx="345" cy="46" r="1.7"></circle><circle cx="358" cy="46" r="1.7"></circle><circle cx="72" cy="59" r="1.7"></circle><circle cx="85" cy="59" r="1.7"></circle><circle cx="98" cy="59" r="1.7"></circle><circle cx="111" cy="59" r="1.7"></circle><circle cx="124" cy="59" r="1.7"></circle><circle cx="137" cy="59" r="1.7"></circle><circle cx="150" cy="59" r="1.7"></circle><circle cx="163" cy="59" r="1.7"></circle><circle cx="176" cy="59" r="1.7"></circle><circle cx="189" cy="59" r="1.7"></circle><circle cx="202" cy="59" r="1.7"></circle><circle cx="215" cy="59" r="1.7"></circle><circle cx="228" cy="59" r="1.7"></circle><circle cx="241" cy="59" r="1.7"></circle><circle cx="254" cy="59" r="1.7"></circle><circle cx="267" cy="59" r="1.7"></circle><circle cx="280" cy="59" r="1.7"></circle><circle cx="293" cy="59" r="1.7"></circle><circle cx="306" cy="59" r="1.7"></circle><circle cx="319" cy="59" r="1.7"></circle><circle cx="332" cy="59" r="1.7"></circle><circle cx="345" cy="59" r="1.7"></circle><circle cx="358" cy="59" r="1.7"></circle><circle cx="371" cy="59" r="1.7"></circle><circle cx="384" cy="59" r="1.7"></circle><circle cx="397" cy="59" r="1.7"></circle><circle cx="410" cy="59" r="1.7"></circle><circle cx="423" cy="59" r="1.7"></circle><circle cx="436" cy="59" r="1.7"></circle><circle cx="59" cy="72" r="1.7"></circle><circle cx="72" cy="72" r="1.7"></circle><circle cx="85" cy="72" r="1.7"></circle><circle cx="98" cy="72" r="1.7"></circle><circle cx="111" cy="72" r="1.7"></circle><circle cx="124" cy="72" r="1.7"></circle><circle cx="137" cy="72" r="1.7"></circle><circle cx="150" cy="72" r="1.7"></circle><circle cx="163" cy="72" r="1.7"></circle><circle cx="176" cy="72" r="1.7"></circle><circle cx="189" cy="72" r="1.7"></circle><circle cx="202" cy="72" r="1.7"></circle><circle cx="215" cy="72" r="1.7"></circle><circle cx="228" cy="72" r="1.7"></circle><circle cx="241" cy="72" r="1.7"></circle><circle cx="254" cy="72" r="1.7"></circle><circle cx="267" cy="72" r="1.7"></circle><circle cx="280" cy="72" r="1.7"></circle><circle cx="293" cy="72" r="1.7"></circle><circle cx="306" cy="72" r="1.7"></circle><circle cx="319" cy="72" r="1.7"></circle><circle cx="332" cy="72" r="1.7"></circle><circle cx="345" cy="72" r="1.7"></circle><circle cx="358" cy="72" r="1.7"></circle><circle cx="371" cy="72" r="1.7"></circle><circle cx="384" cy="72" r="1.7"></circle><circle cx="397" cy="72" r="1.7"></circle><circle cx="410" cy="72" r="1.7"></circle><circle cx="423" cy="72" r="1.7"></circle><circle cx="436" cy="72" r="1.7"></circle><circle cx="46" cy="85" r="1.7"></circle><circle cx="59" cy="85" r="1.7"></circle><circle cx="72" cy="85" r="1.7"></circle><circle cx="85" cy="85" r="1.7"></circle><circle cx="98" cy="85" r="1.7"></circle><circle cx="111" cy="85" r="1.7"></circle><circle cx="124" cy="85" r="1.7"></circle><circle cx="137" cy="85" r="1.7"></circle><circle cx="150" cy="85" r="1.7"></circle><circle cx="163" cy="85" r="1.7"></circle><circle cx="176" cy="85" r="1.7"></circle><circle cx="189" cy="85" r="1.7"></circle><circle cx="202" cy="85" r="1.7"></circle><circle cx="215" cy="85" r="1.7"></circle><circle cx="228" cy="85" r="1.7"></circle><circle cx="241" cy="85" r="1.7"></circle><circle cx="254" cy="85" r="1.7"></circle><circle cx="267" cy="85" r="1.7"></circle><circle cx="280" cy="85" r="1.7"></circle><circle cx="293" cy="85" r="1.7"></circle><circle cx="306" cy="85" r="1.7"></circle><circle cx="319" cy="85" r="1.7"></circle><circle cx="332" cy="85" r="1.7"></circle><circle cx="345" cy="85" r="1.7"></circle><circle cx="358" cy="85" r="1.7"></circle><circle cx="371" cy="85" r="1.7"></circle><circle cx="384" cy="85" r="1.7"></circle><circle cx="397" cy="85" r="1.7"></circle><circle cx="410" cy="85" r="1.7"></circle><circle cx="423" cy="85" r="1.7"></circle><circle cx="436" cy="85" r="1.7"></circle><circle cx="449" cy="85" r="1.7"></circle><circle cx="33" cy="98" r="1.7"></circle><circle cx="46" cy="98" r="1.7"></circle><circle cx="59" cy="98" r="1.7"></circle><circle cx="72" cy="98" r="1.7"></circle><circle cx="85" cy="98" r="1.7"></circle><circle cx="98" cy="98" r="1.7"></circle><circle cx="111" cy="98" r="1.7"></circle><circle cx="124" cy="98" r="1.7"></circle><circle cx="137" cy="98" r="1.7"></circle><circle cx="150" cy="98" r="1.7"></circle><circle cx="163" cy="98" r="1.7"></circle><circle cx="176" cy="98" r="1.7"></circle><circle cx="189" cy="98" r="1.7"></circle><circle cx="202" cy="98" r="1.7"></circle><circle cx="215" cy="98" r="1.7"></circle><circle cx="228" cy="98" r="1.7"></circle><circle cx="241" cy="98" r="1.7"></circle><circle cx="254" cy="98" r="1.7"></circle><circle cx="267" cy="98" r="1.7"></circle><circle cx="280" cy="98" r="1.7"></circle><circle cx="293" cy="98" r="1.7"></circle><circle cx="306" cy="98" r="1.7"></circle><circle cx="319" cy="98" r="1.7"></circle><circle cx="332" cy="98" r="1.7"></circle><circle cx="345" cy="98" r="1.7"></circle><circle cx="358" cy="98" r="1.7"></circle><circle cx="371" cy="98" r="1.7"></circle><circle cx="384" cy="98" r="1.7"></circle><circle cx="397" cy="98" r="1.7"></circle><circle cx="410" cy="98" r="1.7"></circle><circle cx="423" cy="98" r="1.7"></circle><circle cx="436" cy="98" r="1.7"></circle><circle cx="449" cy="98" r="1.7"></circle><circle cx="33" cy="111" r="1.7"></circle><circle cx="46" cy="111" r="1.7"></circle><circle cx="59" cy="111" r="1.7"></circle><circle cx="72" cy="111" r="1.7"></circle><circle cx="85" cy="111" r="1.7"></circle><circle cx="98" cy="111" r="1.7"></circle><circle cx="111" cy="111" r="1.7"></circle><circle cx="124" cy="111" r="1.7"></circle><circle cx="137" cy="111" r="1.7"></circle><circle cx="150" cy="111" r="1.7"></circle><circle cx="163" cy="111" r="1.7"></circle><circle cx="176" cy="111" r="1.7"></circle><circle cx="189" cy="111" r="1.7"></circle><circle cx="202" cy="111" r="1.7"></circle><circle cx="215" cy="111" r="1.7"></circle><circle cx="228" cy="111" r="1.7"></circle><circle cx="241" cy="111" r="1.7"></circle><circle cx="254" cy="111" r="1.7"></circle><circle cx="267" cy="111" r="1.7"></circle><circle cx="280" cy="111" r="1.7"></circle><circle cx="293" cy="111" r="1.7"></circle><circle cx="306" cy="111" r="1.7"></circle><circle cx="319" cy="111" r="1.7"></circle><circle cx="332" cy="111" r="1.7"></circle><circle cx="345" cy="111" r="1.7"></circle><circle cx="358" cy="111" r="1.7"></circle><circle cx="371" cy="111" r="1.7"></circle><circle cx="384" cy="111" r="1.7"></circle><circle cx="397" cy="111" r="1.7"></circle><circle cx="410" cy="111" r="1.7"></circle><circle cx="423" cy="111" r="1.7"></circle><circle cx="436" cy="111" r="1.7"></circle><circle cx="449" cy="111" r="1.7"></circle><circle cx="20" cy="124" r="1.7"></circle><circle cx="33" cy="124" r="1.7"></circle><circle cx="46" cy="124" r="1.7"></circle><circle cx="59" cy="124" r="1.7"></circle><circle cx="72" cy="124" r="1.7"></circle><circle cx="85" cy="124" r="1.7"></circle><circle cx="98" cy="124" r="1.7"></circle><circle cx="111" cy="124" r="1.7"></circle><circle cx="124" cy="124" r="1.7"></circle><circle cx="137" cy="124" r="1.7"></circle><circle cx="150" cy="124" r="1.7"></circle><circle cx="163" cy="124" r="1.7"></circle><circle cx="176" cy="124" r="1.7"></circle><circle cx="189" cy="124" r="1.7"></circle><circle cx="202" cy="124" r="1.7"></circle><circle cx="215" cy="124" r="1.7"></circle><circle cx="228" cy="124" r="1.7"></circle><circle cx="241" cy="124" r="1.7"></circle><circle cx="254" cy="124" r="1.7"></circle><circle cx="267" cy="124" r="1.7"></circle><circle cx="280" cy="124" r="1.7"></circle><circle cx="293" cy="124" r="1.7"></circle><circle cx="306" cy="124" r="1.7"></circle><circle cx="319" cy="124" r="1.7"></circle><circle cx="332" cy="124" r="1.7"></circle><circle cx="345" cy="124" r="1.7"></circle><circle cx="358" cy="124" r="1.7"></circle><circle cx="371" cy="124" r="1.7"></circle><circle cx="384" cy="124" r="1.7"></circle><circle cx="397" cy="124" r="1.7"></circle><circle cx="410" cy="124" r="1.7"></circle><circle cx="423" cy="124" r="1.7"></circle><circle cx="436" cy="124" r="1.7"></circle><circle cx="449" cy="124" r="1.7"></circle><circle cx="462" cy="124" r="1.7"></circle><circle cx="20" cy="137" r="1.7"></circle><circle cx="33" cy="137" r="1.7"></circle><circle cx="46" cy="137" r="1.7"></circle><circle cx="59" cy="137" r="1.7"></circle><circle cx="72" cy="137" r="1.7"></circle><circle cx="85" cy="137" r="1.7"></circle><circle cx="98" cy="137" r="1.7"></circle><circle cx="111" cy="137" r="1.7"></circle><circle cx="124" cy="137" r="1.7"></circle><circle cx="137" cy="137" r="1.7"></circle><circle cx="150" cy="137" r="1.7"></circle><circle cx="163" cy="137" r="1.7"></circle><circle cx="176" cy="137" r="1.7"></circle><circle cx="189" cy="137" r="1.7"></circle><circle cx="202" cy="137" r="1.7"></circle><circle cx="215" cy="137" r="1.7"></circle><circle cx="228" cy="137" r="1.7"></circle><circle cx="241" cy="137" r="1.7"></circle><circle cx="254" cy="137" r="1.7"></circle><circle cx="267" cy="137" r="1.7"></circle><circle cx="280" cy="137" r="1.7"></circle><circle cx="293" cy="137" r="1.7"></circle><circle cx="306" cy="137" r="1.7"></circle><circle cx="319" cy="137" r="1.7"></circle><circle cx="332" cy="137" r="1.7"></circle><circle cx="345" cy="137" r="1.7"></circle><circle cx="358" cy="137" r="1.7"></circle><circle cx="371" cy="137" r="1.7"></circle><circle cx="384" cy="137" r="1.7"></circle><circle cx="397" cy="137" r="1.7"></circle><circle cx="410" cy="137" r="1.7"></circle><circle cx="423" cy="137" r="1.7"></circle><circle cx="436" cy="137" r="1.7"></circle><circle cx="449" cy="137" r="1.7"></circle><circle cx="462" cy="137" r="1.7"></circle><circle cx="20" cy="150" r="1.7"></circle><circle cx="33" cy="150" r="1.7"></circle><circle cx="46" cy="150" r="1.7"></circle><circle cx="59" cy="150" r="1.7"></circle><circle cx="72" cy="150" r="1.7"></circle><circle cx="85" cy="150" r="1.7"></circle><circle cx="98" cy="150" r="1.7"></circle><circle cx="111" cy="150" r="1.7"></circle><circle cx="124" cy="150" r="1.7"></circle><circle cx="137" cy="150" r="1.7"></circle><circle cx="150" cy="150" r="1.7"></circle><circle cx="163" cy="150" r="1.7"></circle><circle cx="176" cy="150" r="1.7"></circle><circle cx="189" cy="150" r="1.7"></circle><circle cx="202" cy="150" r="1.7"></circle><circle cx="215" cy="150" r="1.7"></circle><circle cx="228" cy="150" r="1.7"></circle><circle cx="241" cy="150" r="1.7"></circle><circle cx="254" cy="150" r="1.7"></circle><circle cx="267" cy="150" r="1.7"></circle><circle cx="280" cy="150" r="1.7"></circle><circle cx="293" cy="150" r="1.7"></circle><circle cx="306" cy="150" r="1.7"></circle><circle cx="319" cy="150" r="1.7"></circle><circle cx="332" cy="150" r="1.7"></circle><circle cx="345" cy="150" r="1.7"></circle><circle cx="358" cy="150" r="1.7"></circle><circle cx="371" cy="150" r="1.7"></circle><circle cx="384" cy="150" r="1.7"></circle><circle cx="397" cy="150" r="1.7"></circle><circle cx="410" cy="150" r="1.7"></circle><circle cx="423" cy="150" r="1.7"></circle><circle cx="436" cy="150" r="1.7"></circle><circle cx="449" cy="150" r="1.7"></circle><circle cx="462" cy="150" r="1.7"></circle><circle cx="20" cy="163" r="1.7"></circle><circle cx="33" cy="163" r="1.7"></circle><circle cx="46" cy="163" r="1.7"></circle><circle cx="59" cy="163" r="1.7"></circle><circle cx="72" cy="163" r="1.7"></circle><circle cx="85" cy="163" r="1.7"></circle><circle cx="98" cy="163" r="1.7"></circle><circle cx="111" cy="163" r="1.7"></circle><circle cx="124" cy="163" r="1.7"></circle><circle cx="137" cy="163" r="1.7"></circle><circle cx="150" cy="163" r="1.7"></circle><circle cx="163" cy="163" r="1.7"></circle><circle cx="176" cy="163" r="1.7"></circle><circle cx="189" cy="163" r="1.7"></circle><circle cx="202" cy="163" r="1.7"></circle><circle cx="215" cy="163" r="1.7"></circle><circle cx="228" cy="163" r="1.7"></circle><circle cx="241" cy="163" r="1.7"></circle><circle cx="254" cy="163" r="1.7"></circle><circle cx="267" cy="163" r="1.7"></circle><circle cx="280" cy="163" r="1.7"></circle><circle cx="293" cy="163" r="1.7"></circle><circle cx="306" cy="163" r="1.7"></circle><circle cx="319" cy="163" r="1.7"></circle><circle cx="332" cy="163" r="1.7"></circle><circle cx="345" cy="163" r="1.7"></circle><circle cx="358" cy="163" r="1.7"></circle><circle cx="371" cy="163" r="1.7"></circle><circle cx="384" cy="163" r="1.7"></circle><circle cx="397" cy="163" r="1.7"></circle><circle cx="410" cy="163" r="1.7"></circle><circle cx="423" cy="163" r="1.7"></circle><circle cx="436" cy="163" r="1.7"></circle><circle cx="449" cy="163" r="1.7"></circle><circle cx="462" cy="163" r="1.7"></circle><circle cx="475" cy="163" r="1.7"></circle><circle cx="20" cy="176" r="1.7"></circle><circle cx="33" cy="176" r="1.7"></circle><circle cx="46" cy="176" r="1.7"></circle><circle cx="59" cy="176" r="1.7"></circle><circle cx="72" cy="176" r="1.7"></circle><circle cx="85" cy="176" r="1.7"></circle><circle cx="98" cy="176" r="1.7"></circle><circle cx="111" cy="176" r="1.7"></circle><circle cx="124" cy="176" r="1.7"></circle><circle cx="137" cy="176" r="1.7"></circle><circle cx="150" cy="176" r="1.7"></circle><circle cx="163" cy="176" r="1.7"></circle><circle cx="176" cy="176" r="1.7"></circle><circle cx="189" cy="176" r="1.7"></circle><circle cx="202" cy="176" r="1.7"></circle><circle cx="215" cy="176" r="1.7"></circle><circle cx="228" cy="176" r="1.7"></circle><circle cx="241" cy="176" r="1.7"></circle><circle cx="254" cy="176" r="1.7"></circle><circle cx="267" cy="176" r="1.7"></circle><circle cx="280" cy="176" r="1.7"></circle><circle cx="293" cy="176" r="1.7"></circle><circle cx="306" cy="176" r="1.7"></circle><circle cx="319" cy="176" r="1.7"></circle><circle cx="332" cy="176" r="1.7"></circle><circle cx="345" cy="176" r="1.7"></circle><circle cx="358" cy="176" r="1.7"></circle><circle cx="371" cy="176" r="1.7"></circle><circle cx="384" cy="176" r="1.7"></circle><circle cx="397" cy="176" r="1.7"></circle><circle cx="410" cy="176" r="1.7"></circle><circle cx="423" cy="176" r="1.7"></circle><circle cx="436" cy="176" r="1.7"></circle><circle cx="449" cy="176" r="1.7"></circle><circle cx="462" cy="176" r="1.7"></circle><circle cx="475" cy="176" r="1.7"></circle><circle cx="7" cy="189" r="1.7"></circle><circle cx="20" cy="189" r="1.7"></circle><circle cx="33" cy="189" r="1.7"></circle><circle cx="46" cy="189" r="1.7"></circle><circle cx="59" cy="189" r="1.7"></circle><circle cx="72" cy="189" r="1.7"></circle><circle cx="85" cy="189" r="1.7"></circle><circle cx="98" cy="189" r="1.7"></circle><circle cx="111" cy="189" r="1.7"></circle><circle cx="124" cy="189" r="1.7"></circle><circle cx="137" cy="189" r="1.7"></circle><circle cx="150" cy="189" r="1.7"></circle><circle cx="163" cy="189" r="1.7"></circle><circle cx="176" cy="189" r="1.7"></circle><circle cx="189" cy="189" r="1.7"></circle><circle cx="202" cy="189" r="1.7"></circle><circle cx="215" cy="189" r="1.7"></circle><circle cx="228" cy="189" r="1.7"></circle><circle cx="241" cy="189" r="1.7"></circle><circle cx="254" cy="189" r="1.7"></circle><circle cx="267" cy="189" r="1.7"></circle><circle cx="280" cy="189" r="1.7"></circle><circle cx="293" cy="189" r="1.7"></circle><circle cx="306" cy="189" r="1.7"></circle><circle cx="319" cy="189" r="1.7"></circle><circle cx="332" cy="189" r="1.7"></circle><circle cx="345" cy="189" r="1.7"></circle><circle cx="358" cy="189" r="1.7"></circle><circle cx="371" cy="189" r="1.7"></circle><circle cx="384" cy="189" r="1.7"></circle><circle cx="397" cy="189" r="1.7"></circle><circle cx="410" cy="189" r="1.7"></circle><circle cx="423" cy="189" r="1.7"></circle><circle cx="436" cy="189" r="1.7"></circle><circle cx="449" cy="189" r="1.7"></circle><circle cx="462" cy="189" r="1.7"></circle><circle cx="475" cy="189" r="1.7"></circle><circle cx="488" cy="189" r="1.7"></circle><circle cx="7" cy="202" r="1.7"></circle><circle cx="20" cy="202" r="1.7"></circle><circle cx="33" cy="202" r="1.7"></circle><circle cx="46" cy="202" r="1.7"></circle><circle cx="59" cy="202" r="1.7"></circle><circle cx="72" cy="202" r="1.7"></circle><circle cx="85" cy="202" r="1.7"></circle><circle cx="98" cy="202" r="1.7"></circle><circle cx="111" cy="202" r="1.7"></circle><circle cx="124" cy="202" r="1.7"></circle><circle cx="137" cy="202" r="1.7"></circle><circle cx="150" cy="202" r="1.7"></circle><circle cx="163" cy="202" r="1.7"></circle><circle cx="176" cy="202" r="1.7"></circle><circle cx="189" cy="202" r="1.7"></circle><circle cx="202" cy="202" r="1.7"></circle><circle cx="215" cy="202" r="1.7"></circle><circle cx="228" cy="202" r="1.7"></circle><circle cx="241" cy="202" r="1.7"></circle><circle cx="254" cy="202" r="1.7"></circle><circle cx="267" cy="202" r="1.7"></circle><circle cx="280" cy="202" r="1.7"></circle><circle cx="293" cy="202" r="1.7"></circle><circle cx="306" cy="202" r="1.7"></circle><circle cx="319" cy="202" r="1.7"></circle><circle cx="332" cy="202" r="1.7"></circle><circle cx="345" cy="202" r="1.7"></circle><circle cx="358" cy="202" r="1.7"></circle><circle cx="371" cy="202" r="1.7"></circle><circle cx="384" cy="202" r="1.7"></circle><circle cx="397" cy="202" r="1.7"></circle><circle cx="410" cy="202" r="1.7"></circle><circle cx="423" cy="202" r="1.7"></circle><circle cx="436" cy="202" r="1.7"></circle><circle cx="449" cy="202" r="1.7"></circle><circle cx="462" cy="202" r="1.7"></circle><circle cx="475" cy="202" r="1.7"></circle><circle cx="488" cy="202" r="1.7"></circle><circle cx="501" cy="202" r="1.7"></circle><circle cx="20" cy="215" r="1.7"></circle><circle cx="33" cy="215" r="1.7"></circle><circle cx="46" cy="215" r="1.7"></circle><circle cx="59" cy="215" r="1.7"></circle><circle cx="72" cy="215" r="1.7"></circle><circle cx="85" cy="215" r="1.7"></circle><circle cx="98" cy="215" r="1.7"></circle><circle cx="111" cy="215" r="1.7"></circle><circle cx="124" cy="215" r="1.7"></circle><circle cx="137" cy="215" r="1.7"></circle><circle cx="150" cy="215" r="1.7"></circle><circle cx="163" cy="215" r="1.7"></circle><circle cx="176" cy="215" r="1.7"></circle><circle cx="189" cy="215" r="1.7"></circle><circle cx="202" cy="215" r="1.7"></circle><circle cx="215" cy="215" r="1.7"></circle><circle cx="228" cy="215" r="1.7"></circle><circle cx="241" cy="215" r="1.7"></circle><circle cx="254" cy="215" r="1.7"></circle><circle cx="267" cy="215" r="1.7"></circle><circle cx="280" cy="215" r="1.7"></circle><circle cx="293" cy="215" r="1.7"></circle><circle cx="306" cy="215" r="1.7"></circle><circle cx="319" cy="215" r="1.7"></circle><circle cx="332" cy="215" r="1.7"></circle><circle cx="345" cy="215" r="1.7"></circle><circle cx="358" cy="215" r="1.7"></circle><circle cx="371" cy="215" r="1.7"></circle><circle cx="384" cy="215" r="1.7"></circle><circle cx="397" cy="215" r="1.7"></circle><circle cx="410" cy="215" r="1.7"></circle><circle cx="423" cy="215" r="1.7"></circle><circle cx="436" cy="215" r="1.7"></circle><circle cx="449" cy="215" r="1.7"></circle><circle cx="462" cy="215" r="1.7"></circle><circle cx="475" cy="215" r="1.7"></circle><circle cx="488" cy="215" r="1.7"></circle><circle cx="501" cy="215" r="1.7"></circle><circle cx="514" cy="215" r="1.7"></circle><circle cx="33" cy="228" r="1.7"></circle><circle cx="46" cy="228" r="1.7"></circle><circle cx="59" cy="228" r="1.7"></circle><circle cx="72" cy="228" r="1.7"></circle><circle cx="85" cy="228" r="1.7"></circle><circle cx="98" cy="228" r="1.7"></circle><circle cx="111" cy="228" r="1.7"></circle><circle cx="124" cy="228" r="1.7"></circle><circle cx="137" cy="228" r="1.7"></circle><circle cx="150" cy="228" r="1.7"></circle><circle cx="163" cy="228" r="1.7"></circle><circle cx="176" cy="228" r="1.7"></circle><circle cx="189" cy="228" r="1.7"></circle><circle cx="202" cy="228" r="1.7"></circle><circle cx="215" cy="228" r="1.7"></circle><circle cx="228" cy="228" r="1.7"></circle><circle cx="241" cy="228" r="1.7"></circle><circle cx="254" cy="228" r="1.7"></circle><circle cx="267" cy="228" r="1.7"></circle><circle cx="280" cy="228" r="1.7"></circle><circle cx="293" cy="228" r="1.7"></circle><circle cx="306" cy="228" r="1.7"></circle><circle cx="319" cy="228" r="1.7"></circle><circle cx="332" cy="228" r="1.7"></circle><circle cx="345" cy="228" r="1.7"></circle><circle cx="358" cy="228" r="1.7"></circle><circle cx="371" cy="228" r="1.7"></circle><circle cx="384" cy="228" r="1.7"></circle><circle cx="397" cy="228" r="1.7"></circle><circle cx="410" cy="228" r="1.7"></circle><circle cx="423" cy="228" r="1.7"></circle><circle cx="436" cy="228" r="1.7"></circle><circle cx="449" cy="228" r="1.7"></circle><circle cx="462" cy="228" r="1.7"></circle><circle cx="475" cy="228" r="1.7"></circle><circle cx="488" cy="228" r="1.7"></circle><circle cx="501" cy="228" r="1.7"></circle><circle cx="514" cy="228" r="1.7"></circle><circle cx="527" cy="228" r="1.7"></circle><circle cx="540" cy="228" r="1.7"></circle><circle cx="553" cy="228" r="1.7"></circle><circle cx="566" cy="228" r="1.7"></circle><circle cx="579" cy="228" r="1.7"></circle><circle cx="592" cy="228" r="1.7"></circle><circle cx="33" cy="241" r="1.7"></circle><circle cx="46" cy="241" r="1.7"></circle><circle cx="59" cy="241" r="1.7"></circle><circle cx="72" cy="241" r="1.7"></circle><circle cx="85" cy="241" r="1.7"></circle><circle cx="98" cy="241" r="1.7"></circle><circle cx="111" cy="241" r="1.7"></circle><circle cx="124" cy="241" r="1.7"></circle><circle cx="137" cy="241" r="1.7"></circle><circle cx="150" cy="241" r="1.7"></circle><circle cx="163" cy="241" r="1.7"></circle><circle cx="176" cy="241" r="1.7"></circle><circle cx="189" cy="241" r="1.7"></circle><circle cx="202" cy="241" r="1.7"></circle><circle cx="215" cy="241" r="1.7"></circle><circle cx="228" cy="241" r="1.7"></circle><circle cx="241" cy="241" r="1.7"></circle><circle cx="254" cy="241" r="1.7"></circle><circle cx="267" cy="241" r="1.7"></circle><circle cx="280" cy="241" r="1.7"></circle><circle cx="293" cy="241" r="1.7"></circle><circle cx="306" cy="241" r="1.7"></circle><circle cx="319" cy="241" r="1.7"></circle><circle cx="332" cy="241" r="1.7"></circle><circle cx="345" cy="241" r="1.7"></circle><circle cx="358" cy="241" r="1.7"></circle><circle cx="371" cy="241" r="1.7"></circle><circle cx="384" cy="241" r="1.7"></circle><circle cx="397" cy="241" r="1.7"></circle><circle cx="410" cy="241" r="1.7"></circle><circle cx="423" cy="241" r="1.7"></circle><circle cx="436" cy="241" r="1.7"></circle><circle cx="449" cy="241" r="1.7"></circle><circle cx="462" cy="241" r="1.7"></circle><circle cx="475" cy="241" r="1.7"></circle><circle cx="488" cy="241" r="1.7"></circle><circle cx="501" cy="241" r="1.7"></circle><circle cx="514" cy="241" r="1.7"></circle><circle cx="527" cy="241" r="1.7"></circle><circle cx="540" cy="241" r="1.7"></circle><circle cx="553" cy="241" r="1.7"></circle><circle cx="566" cy="241" r="1.7"></circle><circle cx="579" cy="241" r="1.7"></circle><circle cx="592" cy="241" r="1.7"></circle><circle cx="46" cy="254" r="1.7"></circle><circle cx="59" cy="254" r="1.7"></circle><circle cx="72" cy="254" r="1.7"></circle><circle cx="85" cy="254" r="1.7"></circle><circle cx="98" cy="254" r="1.7"></circle><circle cx="111" cy="254" r="1.7"></circle><circle cx="124" cy="254" r="1.7"></circle><circle cx="137" cy="254" r="1.7"></circle><circle cx="150" cy="254" r="1.7"></circle><circle cx="163" cy="254" r="1.7"></circle><circle cx="176" cy="254" r="1.7"></circle><circle cx="189" cy="254" r="1.7"></circle><circle cx="202" cy="254" r="1.7"></circle><circle cx="215" cy="254" r="1.7"></circle><circle cx="228" cy="254" r="1.7"></circle><circle cx="241" cy="254" r="1.7"></circle><circle cx="254" cy="254" r="1.7"></circle><circle cx="267" cy="254" r="1.7"></circle><circle cx="280" cy="254" r="1.7"></circle><circle cx="293" cy="254" r="1.7"></circle><circle cx="306" cy="254" r="1.7"></circle><circle cx="319" cy="254" r="1.7"></circle><circle cx="332" cy="254" r="1.7"></circle><circle cx="345" cy="254" r="1.7"></circle><circle cx="358" cy="254" r="1.7"></circle><circle cx="371" cy="254" r="1.7"></circle><circle cx="384" cy="254" r="1.7"></circle><circle cx="397" cy="254" r="1.7"></circle><circle cx="410" cy="254" r="1.7"></circle><circle cx="423" cy="254" r="1.7"></circle><circle cx="436" cy="254" r="1.7"></circle><circle cx="449" cy="254" r="1.7"></circle><circle cx="462" cy="254" r="1.7"></circle><circle cx="475" cy="254" r="1.7"></circle><circle cx="488" cy="254" r="1.7"></circle><circle cx="501" cy="254" r="1.7"></circle><circle cx="514" cy="254" r="1.7"></circle><circle cx="527" cy="254" r="1.7"></circle><circle cx="540" cy="254" r="1.7"></circle><circle cx="553" cy="254" r="1.7"></circle><circle cx="566" cy="254" r="1.7"></circle><circle cx="579" cy="254" r="1.7"></circle><circle cx="592" cy="254" r="1.7"></circle><circle cx="72" cy="267" r="1.7"></circle><circle cx="85" cy="267" r="1.7"></circle><circle cx="98" cy="267" r="1.7"></circle><circle cx="111" cy="267" r="1.7"></circle><circle cx="124" cy="267" r="1.7"></circle><circle cx="137" cy="267" r="1.7"></circle><circle cx="150" cy="267" r="1.7"></circle><circle cx="163" cy="267" r="1.7"></circle><circle cx="176" cy="267" r="1.7"></circle><circle cx="189" cy="267" r="1.7"></circle><circle cx="202" cy="267" r="1.7"></circle><circle cx="215" cy="267" r="1.7"></circle><circle cx="228" cy="267" r="1.7"></circle><circle cx="241" cy="267" r="1.7"></circle><circle cx="254" cy="267" r="1.7"></circle><circle cx="267" cy="267" r="1.7"></circle><circle cx="280" cy="267" r="1.7"></circle><circle cx="293" cy="267" r="1.7"></circle><circle cx="306" cy="267" r="1.7"></circle><circle cx="319" cy="267" r="1.7"></circle><circle cx="332" cy="267" r="1.7"></circle><circle cx="345" cy="267" r="1.7"></circle><circle cx="358" cy="267" r="1.7"></circle><circle cx="371" cy="267" r="1.7"></circle><circle cx="384" cy="267" r="1.7"></circle><circle cx="397" cy="267" r="1.7"></circle><circle cx="410" cy="267" r="1.7"></circle><circle cx="423" cy="267" r="1.7"></circle><circle cx="436" cy="267" r="1.7"></circle><circle cx="449" cy="267" r="1.7"></circle><circle cx="462" cy="267" r="1.7"></circle><circle cx="475" cy="267" r="1.7"></circle><circle cx="488" cy="267" r="1.7"></circle><circle cx="501" cy="267" r="1.7"></circle><circle cx="514" cy="267" r="1.7"></circle><circle cx="527" cy="267" r="1.7"></circle><circle cx="540" cy="267" r="1.7"></circle><circle cx="553" cy="267" r="1.7"></circle><circle cx="566" cy="267" r="1.7"></circle><circle cx="579" cy="267" r="1.7"></circle><circle cx="592" cy="267" r="1.7"></circle><circle cx="85" cy="280" r="1.7"></circle><circle cx="98" cy="280" r="1.7"></circle><circle cx="111" cy="280" r="1.7"></circle><circle cx="202" cy="280" r="1.7"></circle><circle cx="215" cy="280" r="1.7"></circle><circle cx="228" cy="280" r="1.7"></circle><circle cx="241" cy="280" r="1.7"></circle><circle cx="254" cy="280" r="1.7"></circle><circle cx="267" cy="280" r="1.7"></circle><circle cx="280" cy="280" r="1.7"></circle><circle cx="293" cy="280" r="1.7"></circle><circle cx="306" cy="280" r="1.7"></circle><circle cx="319" cy="280" r="1.7"></circle><circle cx="332" cy="280" r="1.7"></circle><circle cx="345" cy="280" r="1.7"></circle><circle cx="358" cy="280" r="1.7"></circle><circle cx="371" cy="280" r="1.7"></circle><circle cx="384" cy="280" r="1.7"></circle><circle cx="397" cy="280" r="1.7"></circle><circle cx="410" cy="280" r="1.7"></circle><circle cx="423" cy="280" r="1.7"></circle><circle cx="436" cy="280" r="1.7"></circle><circle cx="449" cy="280" r="1.7"></circle><circle cx="462" cy="280" r="1.7"></circle><circle cx="475" cy="280" r="1.7"></circle><circle cx="488" cy="280" r="1.7"></circle><circle cx="501" cy="280" r="1.7"></circle><circle cx="514" cy="280" r="1.7"></circle><circle cx="527" cy="280" r="1.7"></circle><circle cx="540" cy="280" r="1.7"></circle><circle cx="553" cy="280" r="1.7"></circle><circle cx="566" cy="280" r="1.7"></circle><circle cx="579" cy="280" r="1.7"></circle><circle cx="592" cy="280" r="1.7"></circle><circle cx="241" cy="293" r="1.7"></circle><circle cx="254" cy="293" r="1.7"></circle><circle cx="267" cy="293" r="1.7"></circle><circle cx="280" cy="293" r="1.7"></circle><circle cx="293" cy="293" r="1.7"></circle><circle cx="306" cy="293" r="1.7"></circle><circle cx="319" cy="293" r="1.7"></circle><circle cx="332" cy="293" r="1.7"></circle><circle cx="345" cy="293" r="1.7"></circle><circle cx="358" cy="293" r="1.7"></circle><circle cx="371" cy="293" r="1.7"></circle><circle cx="384" cy="293" r="1.7"></circle><circle cx="397" cy="293" r="1.7"></circle><circle cx="410" cy="293" r="1.7"></circle><circle cx="423" cy="293" r="1.7"></circle><circle cx="436" cy="293" r="1.7"></circle><circle cx="449" cy="293" r="1.7"></circle><circle cx="462" cy="293" r="1.7"></circle><circle cx="475" cy="293" r="1.7"></circle><circle cx="488" cy="293" r="1.7"></circle><circle cx="501" cy="293" r="1.7"></circle><circle cx="514" cy="293" r="1.7"></circle><circle cx="527" cy="293" r="1.7"></circle><circle cx="540" cy="293" r="1.7"></circle><circle cx="553" cy="293" r="1.7"></circle><circle cx="566" cy="293" r="1.7"></circle><circle cx="579" cy="293" r="1.7"></circle><circle cx="241" cy="306" r="1.7"></circle><circle cx="254" cy="306" r="1.7"></circle><circle cx="267" cy="306" r="1.7"></circle><circle cx="280" cy="306" r="1.7"></circle><circle cx="293" cy="306" r="1.7"></circle><circle cx="306" cy="306" r="1.7"></circle><circle cx="319" cy="306" r="1.7"></circle><circle cx="332" cy="306" r="1.7"></circle><circle cx="345" cy="306" r="1.7"></circle><circle cx="358" cy="306" r="1.7"></circle><circle cx="371" cy="306" r="1.7"></circle><circle cx="384" cy="306" r="1.7"></circle><circle cx="397" cy="306" r="1.7"></circle><circle cx="410" cy="306" r="1.7"></circle><circle cx="423" cy="306" r="1.7"></circle><circle cx="436" cy="306" r="1.7"></circle><circle cx="449" cy="306" r="1.7"></circle><circle cx="462" cy="306" r="1.7"></circle><circle cx="475" cy="306" r="1.7"></circle><circle cx="488" cy="306" r="1.7"></circle><circle cx="501" cy="306" r="1.7"></circle><circle cx="514" cy="306" r="1.7"></circle><circle cx="527" cy="306" r="1.7"></circle><circle cx="540" cy="306" r="1.7"></circle><circle cx="553" cy="306" r="1.7"></circle><circle cx="241" cy="319" r="1.7"></circle><circle cx="254" cy="319" r="1.7"></circle><circle cx="267" cy="319" r="1.7"></circle><circle cx="280" cy="319" r="1.7"></circle><circle cx="293" cy="319" r="1.7"></circle><circle cx="306" cy="319" r="1.7"></circle><circle cx="319" cy="319" r="1.7"></circle><circle cx="332" cy="319" r="1.7"></circle><circle cx="345" cy="319" r="1.7"></circle><circle cx="358" cy="319" r="1.7"></circle><circle cx="371" cy="319" r="1.7"></circle><circle cx="384" cy="319" r="1.7"></circle><circle cx="397" cy="319" r="1.7"></circle><circle cx="410" cy="319" r="1.7"></circle><circle cx="423" cy="319" r="1.7"></circle><circle cx="436" cy="319" r="1.7"></circle><circle cx="449" cy="319" r="1.7"></circle><circle cx="462" cy="319" r="1.7"></circle><circle cx="475" cy="319" r="1.7"></circle><circle cx="488" cy="319" r="1.7"></circle><circle cx="501" cy="319" r="1.7"></circle><circle cx="514" cy="319" r="1.7"></circle><circle cx="527" cy="319" r="1.7"></circle><circle cx="241" cy="332" r="1.7"></circle><circle cx="254" cy="332" r="1.7"></circle><circle cx="267" cy="332" r="1.7"></circle><circle cx="280" cy="332" r="1.7"></circle><circle cx="293" cy="332" r="1.7"></circle><circle cx="306" cy="332" r="1.7"></circle><circle cx="319" cy="332" r="1.7"></circle><circle cx="332" cy="332" r="1.7"></circle><circle cx="345" cy="332" r="1.7"></circle><circle cx="358" cy="332" r="1.7"></circle><circle cx="371" cy="332" r="1.7"></circle><circle cx="384" cy="332" r="1.7"></circle><circle cx="397" cy="332" r="1.7"></circle><circle cx="410" cy="332" r="1.7"></circle><circle cx="423" cy="332" r="1.7"></circle><circle cx="436" cy="332" r="1.7"></circle><circle cx="449" cy="332" r="1.7"></circle><circle cx="462" cy="332" r="1.7"></circle><circle cx="475" cy="332" r="1.7"></circle><circle cx="488" cy="332" r="1.7"></circle><circle cx="501" cy="332" r="1.7"></circle><circle cx="514" cy="332" r="1.7"></circle><circle cx="254" cy="345" r="1.7"></circle><circle cx="267" cy="345" r="1.7"></circle><circle cx="280" cy="345" r="1.7"></circle><circle cx="293" cy="345" r="1.7"></circle><circle cx="306" cy="345" r="1.7"></circle><circle cx="319" cy="345" r="1.7"></circle><circle cx="332" cy="345" r="1.7"></circle><circle cx="345" cy="345" r="1.7"></circle><circle cx="358" cy="345" r="1.7"></circle><circle cx="371" cy="345" r="1.7"></circle><circle cx="384" cy="345" r="1.7"></circle><circle cx="397" cy="345" r="1.7"></circle><circle cx="410" cy="345" r="1.7"></circle><circle cx="423" cy="345" r="1.7"></circle><circle cx="436" cy="345" r="1.7"></circle><circle cx="449" cy="345" r="1.7"></circle><circle cx="462" cy="345" r="1.7"></circle><circle cx="475" cy="345" r="1.7"></circle><circle cx="488" cy="345" r="1.7"></circle><circle cx="501" cy="345" r="1.7"></circle><circle cx="254" cy="358" r="1.7"></circle><circle cx="267" cy="358" r="1.7"></circle><circle cx="280" cy="358" r="1.7"></circle><circle cx="293" cy="358" r="1.7"></circle><circle cx="306" cy="358" r="1.7"></circle><circle cx="319" cy="358" r="1.7"></circle><circle cx="332" cy="358" r="1.7"></circle><circle cx="345" cy="358" r="1.7"></circle><circle cx="358" cy="358" r="1.7"></circle><circle cx="371" cy="358" r="1.7"></circle><circle cx="384" cy="358" r="1.7"></circle><circle cx="397" cy="358" r="1.7"></circle><circle cx="410" cy="358" r="1.7"></circle><circle cx="423" cy="358" r="1.7"></circle><circle cx="436" cy="358" r="1.7"></circle><circle cx="449" cy="358" r="1.7"></circle><circle cx="462" cy="358" r="1.7"></circle><circle cx="475" cy="358" r="1.7"></circle><circle cx="488" cy="358" r="1.7"></circle><circle cx="501" cy="358" r="1.7"></circle><circle cx="267" cy="371" r="1.7"></circle><circle cx="280" cy="371" r="1.7"></circle><circle cx="293" cy="371" r="1.7"></circle><circle cx="306" cy="371" r="1.7"></circle><circle cx="319" cy="371" r="1.7"></circle><circle cx="332" cy="371" r="1.7"></circle><circle cx="345" cy="371" r="1.7"></circle><circle cx="358" cy="371" r="1.7"></circle><circle cx="371" cy="371" r="1.7"></circle><circle cx="384" cy="371" r="1.7"></circle><circle cx="397" cy="371" r="1.7"></circle><circle cx="410" cy="371" r="1.7"></circle><circle cx="423" cy="371" r="1.7"></circle><circle cx="436" cy="371" r="1.7"></circle><circle cx="449" cy="371" r="1.7"></circle><circle cx="462" cy="371" r="1.7"></circle><circle cx="475" cy="371" r="1.7"></circle><circle cx="488" cy="371" r="1.7"></circle><circle cx="267" cy="384" r="1.7"></circle><circle cx="280" cy="384" r="1.7"></circle><circle cx="293" cy="384" r="1.7"></circle><circle cx="306" cy="384" r="1.7"></circle><circle cx="319" cy="384" r="1.7"></circle><circle cx="332" cy="384" r="1.7"></circle><circle cx="345" cy="384" r="1.7"></circle><circle cx="358" cy="384" r="1.7"></circle><circle cx="371" cy="384" r="1.7"></circle><circle cx="384" cy="384" r="1.7"></circle><circle cx="397" cy="384" r="1.7"></circle><circle cx="410" cy="384" r="1.7"></circle><circle cx="423" cy="384" r="1.7"></circle><circle cx="436" cy="384" r="1.7"></circle><circle cx="449" cy="384" r="1.7"></circle><circle cx="462" cy="384" r="1.7"></circle><circle cx="475" cy="384" r="1.7"></circle><circle cx="488" cy="384" r="1.7"></circle><circle cx="280" cy="397" r="1.7"></circle><circle cx="293" cy="397" r="1.7"></circle><circle cx="306" cy="397" r="1.7"></circle><circle cx="319" cy="397" r="1.7"></circle><circle cx="332" cy="397" r="1.7"></circle><circle cx="345" cy="397" r="1.7"></circle><circle cx="358" cy="397" r="1.7"></circle><circle cx="371" cy="397" r="1.7"></circle><circle cx="384" cy="397" r="1.7"></circle><circle cx="397" cy="397" r="1.7"></circle><circle cx="410" cy="397" r="1.7"></circle><circle cx="423" cy="397" r="1.7"></circle><circle cx="436" cy="397" r="1.7"></circle><circle cx="449" cy="397" r="1.7"></circle><circle cx="462" cy="397" r="1.7"></circle><circle cx="475" cy="397" r="1.7"></circle><circle cx="488" cy="397" r="1.7"></circle><circle cx="280" cy="410" r="1.7"></circle><circle cx="293" cy="410" r="1.7"></circle><circle cx="306" cy="410" r="1.7"></circle><circle cx="319" cy="410" r="1.7"></circle><circle cx="332" cy="410" r="1.7"></circle><circle cx="345" cy="410" r="1.7"></circle><circle cx="358" cy="410" r="1.7"></circle><circle cx="371" cy="410" r="1.7"></circle><circle cx="384" cy="410" r="1.7"></circle><circle cx="397" cy="410" r="1.7"></circle><circle cx="410" cy="410" r="1.7"></circle><circle cx="423" cy="410" r="1.7"></circle><circle cx="436" cy="410" r="1.7"></circle><circle cx="449" cy="410" r="1.7"></circle><circle cx="462" cy="410" r="1.7"></circle><circle cx="475" cy="410" r="1.7"></circle><circle cx="488" cy="410" r="1.7"></circle><circle cx="501" cy="410" r="1.7"></circle><circle cx="267" cy="423" r="1.7"></circle><circle cx="280" cy="423" r="1.7"></circle><circle cx="293" cy="423" r="1.7"></circle><circle cx="306" cy="423" r="1.7"></circle><circle cx="319" cy="423" r="1.7"></circle><circle cx="332" cy="423" r="1.7"></circle><circle cx="345" cy="423" r="1.7"></circle><circle cx="358" cy="423" r="1.7"></circle><circle cx="371" cy="423" r="1.7"></circle><circle cx="384" cy="423" r="1.7"></circle><circle cx="397" cy="423" r="1.7"></circle><circle cx="410" cy="423" r="1.7"></circle><circle cx="423" cy="423" r="1.7"></circle><circle cx="436" cy="423" r="1.7"></circle><circle cx="449" cy="423" r="1.7"></circle><circle cx="462" cy="423" r="1.7"></circle><circle cx="475" cy="423" r="1.7"></circle><circle cx="488" cy="423" r="1.7"></circle><circle cx="501" cy="423" r="1.7"></circle><circle cx="267" cy="436" r="1.7"></circle><circle cx="280" cy="436" r="1.7"></circle><circle cx="293" cy="436" r="1.7"></circle><circle cx="306" cy="436" r="1.7"></circle><circle cx="319" cy="436" r="1.7"></circle><circle cx="332" cy="436" r="1.7"></circle><circle cx="345" cy="436" r="1.7"></circle><circle cx="358" cy="436" r="1.7"></circle><circle cx="371" cy="436" r="1.7"></circle><circle cx="384" cy="436" r="1.7"></circle><circle cx="397" cy="436" r="1.7"></circle><circle cx="410" cy="436" r="1.7"></circle><circle cx="423" cy="436" r="1.7"></circle><circle cx="436" cy="436" r="1.7"></circle><circle cx="449" cy="436" r="1.7"></circle><circle cx="462" cy="436" r="1.7"></circle><circle cx="475" cy="436" r="1.7"></circle><circle cx="488" cy="436" r="1.7"></circle><circle cx="501" cy="436" r="1.7"></circle><circle cx="267" cy="449" r="1.7"></circle><circle cx="280" cy="449" r="1.7"></circle><circle cx="293" cy="449" r="1.7"></circle><circle cx="306" cy="449" r="1.7"></circle><circle cx="319" cy="449" r="1.7"></circle><circle cx="332" cy="449" r="1.7"></circle><circle cx="345" cy="449" r="1.7"></circle><circle cx="358" cy="449" r="1.7"></circle><circle cx="371" cy="449" r="1.7"></circle><circle cx="384" cy="449" r="1.7"></circle><circle cx="397" cy="449" r="1.7"></circle><circle cx="410" cy="449" r="1.7"></circle><circle cx="423" cy="449" r="1.7"></circle><circle cx="436" cy="449" r="1.7"></circle><circle cx="449" cy="449" r="1.7"></circle><circle cx="462" cy="449" r="1.7"></circle><circle cx="475" cy="449" r="1.7"></circle><circle cx="488" cy="449" r="1.7"></circle><circle cx="267" cy="462" r="1.7"></circle><circle cx="280" cy="462" r="1.7"></circle><circle cx="293" cy="462" r="1.7"></circle><circle cx="306" cy="462" r="1.7"></circle><circle cx="319" cy="462" r="1.7"></circle><circle cx="332" cy="462" r="1.7"></circle><circle cx="345" cy="462" r="1.7"></circle><circle cx="358" cy="462" r="1.7"></circle><circle cx="371" cy="462" r="1.7"></circle><circle cx="384" cy="462" r="1.7"></circle><circle cx="397" cy="462" r="1.7"></circle><circle cx="410" cy="462" r="1.7"></circle><circle cx="423" cy="462" r="1.7"></circle><circle cx="436" cy="462" r="1.7"></circle><circle cx="449" cy="462" r="1.7"></circle><circle cx="462" cy="462" r="1.7"></circle><circle cx="475" cy="462" r="1.7"></circle><circle cx="488" cy="462" r="1.7"></circle><circle cx="267" cy="475" r="1.7"></circle><circle cx="280" cy="475" r="1.7"></circle><circle cx="293" cy="475" r="1.7"></circle><circle cx="306" cy="475" r="1.7"></circle><circle cx="319" cy="475" r="1.7"></circle><circle cx="332" cy="475" r="1.7"></circle><circle cx="345" cy="475" r="1.7"></circle><circle cx="358" cy="475" r="1.7"></circle><circle cx="371" cy="475" r="1.7"></circle><circle cx="384" cy="475" r="1.7"></circle><circle cx="397" cy="475" r="1.7"></circle><circle cx="410" cy="475" r="1.7"></circle><circle cx="423" cy="475" r="1.7"></circle><circle cx="436" cy="475" r="1.7"></circle><circle cx="449" cy="475" r="1.7"></circle><circle cx="462" cy="475" r="1.7"></circle><circle cx="475" cy="475" r="1.7"></circle><circle cx="280" cy="488" r="1.7"></circle><circle cx="293" cy="488" r="1.7"></circle><circle cx="306" cy="488" r="1.7"></circle><circle cx="319" cy="488" r="1.7"></circle><circle cx="332" cy="488" r="1.7"></circle><circle cx="345" cy="488" r="1.7"></circle><circle cx="358" cy="488" r="1.7"></circle><circle cx="371" cy="488" r="1.7"></circle><circle cx="384" cy="488" r="1.7"></circle><circle cx="397" cy="488" r="1.7"></circle><circle cx="410" cy="488" r="1.7"></circle><circle cx="423" cy="488" r="1.7"></circle><circle cx="436" cy="488" r="1.7"></circle><circle cx="449" cy="488" r="1.7"></circle><circle cx="462" cy="488" r="1.7"></circle><circle cx="280" cy="501" r="1.7"></circle><circle cx="293" cy="501" r="1.7"></circle><circle cx="306" cy="501" r="1.7"></circle><circle cx="319" cy="501" r="1.7"></circle><circle cx="332" cy="501" r="1.7"></circle><circle cx="345" cy="501" r="1.7"></circle><circle cx="358" cy="501" r="1.7"></circle><circle cx="371" cy="501" r="1.7"></circle><circle cx="384" cy="501" r="1.7"></circle><circle cx="397" cy="501" r="1.7"></circle><circle cx="410" cy="501" r="1.7"></circle><circle cx="423" cy="501" r="1.7"></circle><circle cx="436" cy="501" r="1.7"></circle><circle cx="449" cy="501" r="1.7"></circle><circle cx="280" cy="514" r="1.7"></circle><circle cx="293" cy="514" r="1.7"></circle><circle cx="306" cy="514" r="1.7"></circle><circle cx="319" cy="514" r="1.7"></circle><circle cx="332" cy="514" r="1.7"></circle><circle cx="345" cy="514" r="1.7"></circle><circle cx="358" cy="514" r="1.7"></circle><circle cx="371" cy="514" r="1.7"></circle><circle cx="384" cy="514" r="1.7"></circle><circle cx="397" cy="514" r="1.7"></circle><circle cx="410" cy="514" r="1.7"></circle><circle cx="423" cy="514" r="1.7"></circle><circle cx="436" cy="514" r="1.7"></circle><circle cx="449" cy="514" r="1.7"></circle><circle cx="293" cy="527" r="1.7"></circle><circle cx="306" cy="527" r="1.7"></circle><circle cx="319" cy="527" r="1.7"></circle><circle cx="332" cy="527" r="1.7"></circle><circle cx="345" cy="527" r="1.7"></circle><circle cx="358" cy="527" r="1.7"></circle><circle cx="371" cy="527" r="1.7"></circle><circle cx="384" cy="527" r="1.7"></circle><circle cx="397" cy="527" r="1.7"></circle><circle cx="410" cy="527" r="1.7"></circle><circle cx="423" cy="527" r="1.7"></circle><circle cx="436" cy="527" r="1.7"></circle><circle cx="449" cy="527" r="1.7"></circle><circle cx="293" cy="540" r="1.7"></circle><circle cx="306" cy="540" r="1.7"></circle><circle cx="319" cy="540" r="1.7"></circle><circle cx="332" cy="540" r="1.7"></circle><circle cx="345" cy="540" r="1.7"></circle><circle cx="358" cy="540" r="1.7"></circle><circle cx="371" cy="540" r="1.7"></circle><circle cx="384" cy="540" r="1.7"></circle><circle cx="397" cy="540" r="1.7"></circle><circle cx="410" cy="540" r="1.7"></circle><circle cx="423" cy="540" r="1.7"></circle><circle cx="436" cy="540" r="1.7"></circle><circle cx="293" cy="553" r="1.7"></circle><circle cx="306" cy="553" r="1.7"></circle><circle cx="319" cy="553" r="1.7"></circle><circle cx="332" cy="553" r="1.7"></circle><circle cx="345" cy="553" r="1.7"></circle><circle cx="358" cy="553" r="1.7"></circle><circle cx="371" cy="553" r="1.7"></circle><circle cx="384" cy="553" r="1.7"></circle><circle cx="397" cy="553" r="1.7"></circle><circle cx="410" cy="553" r="1.7"></circle><circle cx="423" cy="553" r="1.7"></circle><circle cx="436" cy="553" r="1.7"></circle><circle cx="293" cy="566" r="1.7"></circle><circle cx="306" cy="566" r="1.7"></circle><circle cx="319" cy="566" r="1.7"></circle><circle cx="332" cy="566" r="1.7"></circle><circle cx="345" cy="566" r="1.7"></circle><circle cx="358" cy="566" r="1.7"></circle><circle cx="371" cy="566" r="1.7"></circle><circle cx="384" cy="566" r="1.7"></circle><circle cx="397" cy="566" r="1.7"></circle><circle cx="410" cy="566" r="1.7"></circle><circle cx="423" cy="566" r="1.7"></circle><circle cx="306" cy="579" r="1.7"></circle><circle cx="319" cy="579" r="1.7"></circle><circle cx="332" cy="579" r="1.7"></circle><circle cx="345" cy="579" r="1.7"></circle><circle cx="358" cy="579" r="1.7"></circle><circle cx="371" cy="579" r="1.7"></circle><circle cx="384" cy="579" r="1.7"></circle><circle cx="397" cy="579" r="1.7"></circle><circle cx="410" cy="579" r="1.7"></circle><circle cx="423" cy="579" r="1.7"></circle><circle cx="306" cy="592" r="1.7"></circle><circle cx="319" cy="592" r="1.7"></circle><circle cx="332" cy="592" r="1.7"></circle><circle cx="345" cy="592" r="1.7"></circle><circle cx="358" cy="592" r="1.7"></circle><circle cx="371" cy="592" r="1.7"></circle><circle cx="384" cy="592" r="1.7"></circle><circle cx="397" cy="592" r="1.7"></circle><circle cx="410" cy="592" r="1.7"></circle><circle cx="319" cy="605" r="1.7"></circle><circle cx="332" cy="605" r="1.7"></circle><circle cx="345" cy="605" r="1.7"></circle><circle cx="358" cy="605" r="1.7"></circle><circle cx="371" cy="605" r="1.7"></circle><circle cx="384" cy="605" r="1.7"></circle><circle cx="397" cy="605" r="1.7"></circle><circle cx="319" cy="618" r="1.7"></circle><circle cx="332" cy="618" r="1.7"></circle><circle cx="345" cy="618" r="1.7"></circle><circle cx="358" cy="618" r="1.7"></circle><circle cx="371" cy="618" r="1.7"></circle></g></svg>